HIERARCHY
ROOT Hips
{
	OFFSET	0.00	0.00	0.00
	CHANNELS 6 Xposition Yposition Zposition Zrotation Xrotation Yrotation
	JOINT LeftUpLeg
	{
		OFFSET	 0.126116	-0.014019	-0.065224
		CHANNELS 3 Zrotation Xrotation Yrotation
		JOINT LeftLeg
		{
			OFFSET	 0.000000	 0.000000	 0.569914
			CHANNELS 3 Zrotation Xrotation Yrotation
			JOINT LeftFoot
			{
				OFFSET	 0.000000	 0.000000	 0.544423
				CHANNELS 3 Zrotation Xrotation Yrotation
				JOINT LeftToeBase
				{
					OFFSET	 0.000000	 0.000000	 0.207117
					CHANNELS 3 Zrotation Xrotation Yrotation
					End Site
					{
						OFFSET	 0.000000	 0.000000	 0.207117
					}
				}
			}
		}
	}
	JOINT RightUpLeg
	{
		OFFSET	-0.124023	-0.008373	-0.065224
		CHANNELS 3 Zrotation Xrotation Yrotation
		JOINT RightLeg
		{
			OFFSET	 0.000000	 0.000000	 0.570047
			CHANNELS 3 Zrotation Xrotation Yrotation
			JOINT RightFoot
			{
				OFFSET	 0.000000	 0.000000	 0.544354
				CHANNELS 3 Zrotation Xrotation Yrotation
				JOINT RightToeBase
				{
					OFFSET	 0.000000	 0.000000	 0.207540
					CHANNELS 3 Zrotation Xrotation Yrotation
					End Site
					{
						OFFSET	 0.000000	 0.000000	 0.207540
					}
				}
			}
		}
	}
	JOINT Spine
	{
		OFFSET	 0.000184	-0.007763	 0.117403
		CHANNELS 3 Zrotation Xrotation Yrotation
		JOINT Spine1
		{
			OFFSET	 0.000000	 0.000000	 0.137269
			CHANNELS 3 Zrotation Xrotation Yrotation
			JOINT Spine2
			{
				OFFSET	 0.000000	 0.000000	 0.156879
				CHANNELS 3 Zrotation Xrotation Yrotation
				JOINT LeftShoulder
				{
					OFFSET	 0.080501	-0.002496	 0.160144
					CHANNELS 3 Zrotation Xrotation Yrotation
					JOINT LeftArm
					{
						OFFSET	 0.000000	 0.000000	 0.164363
						CHANNELS 3 Zrotation Xrotation Yrotation
						JOINT LeftForeArm
						{
							OFFSET	 0.000000	 0.000000	 0.364576
							CHANNELS 3 Zrotation Xrotation Yrotation
							JOINT LeftHand
							{
								OFFSET	 0.000000	 0.000000	 0.360812
								CHANNELS 3 Zrotation Xrotation Yrotation
								JOINT LeftHandIndex1
								{
									OFFSET	 0.000000	 0.000000	 0.086006
									CHANNELS 3 Zrotation Xrotation Yrotation
									JOINT LeftHandIndex2
									{
										OFFSET	 0.000000	 0.000000	 0.047236
										CHANNELS 3 Zrotation Xrotation Yrotation
										JOINT LeftHandIndex3
										{
											OFFSET	-0.004284	-0.000551	 0.038166
											CHANNELS 3 Zrotation Xrotation Yrotation
											End Site
											{
												OFFSET	-0.004284	-0.000551	 0.038166
											}
										}
									}
								}
							}
						}
					}
				}
				JOINT Neck
				{
					OFFSET	 0.000000	 0.000000	 0.176489
					CHANNELS 3 Zrotation Xrotation Yrotation
					JOINT Head
					{
						OFFSET	 0.000000	-0.001747	 0.077940
						CHANNELS 3 Zrotation Xrotation Yrotation
						End Site
						{
							OFFSET	 0.000000	-0.001747	 0.077940
						}
					}
				}
				JOINT RightShoulder
				{
					OFFSET	-0.080363	 0.000306	 0.159706
					CHANNELS 3 Zrotation Xrotation Yrotation
					JOINT RightArm
					{
						OFFSET	 0.000000	 0.000000	 0.164196
						CHANNELS 3 Zrotation Xrotation Yrotation
						JOINT RightForeArm
						{
							OFFSET	 0.000000	 0.000000	 0.365611
							CHANNELS 3 Zrotation Xrotation Yrotation
							JOINT RightHand
							{
								OFFSET	 0.000000	 0.000000	 0.360648
								CHANNELS 3 Zrotation Xrotation Yrotation
								JOINT RightHandIndex1
								{
									OFFSET	 0.000000	 0.000000	 0.069977
									CHANNELS 3 Zrotation Xrotation Yrotation
									JOINT RightHandIndex2
									{
										OFFSET	 0.000000	 0.000000	 0.052305
										CHANNELS 3 Zrotation Xrotation Yrotation
										JOINT RightHandIndex3
										{
											OFFSET	 0.009002	-0.000782	 0.042196
											CHANNELS 3 Zrotation Xrotation Yrotation
											End Site
											{
												OFFSET	 0.009002	-0.000782	 0.042196
											}
										}
									}
								}
							}
						}
					}
				}
			}
		}
	}
}
MOTION
Frames:    4
Frame Time: 0.03333334
-6.505831	-26.830750	 0.958145	-29.328140	 9.505162	 3.102638	 5.635274	-20.712960	 175.449700	-4.210039	-36.264110	-0.954408	-1.152741	 83.499470	-0.459969	-2.333730	 36.454770	-0.184372	-2.040303	-22.701860	-178.936900	-2.004372	-40.378980	-0.989617	-1.499285	 87.060880	 0.688612	 2.393715	 26.060940	-0.049613	-1.281582	 5.296599	-1.528770	-2.061059	 3.868775	-2.063528	-2.820769	 1.455137	-0.150858	-101.582600	 88.594030	-167.483300	 54.805530	 68.108010	-64.772170	-4.935438	-4.329196	-17.940370	 8.221033	 1.990698	-5.308637	-1.828236	-11.063750	 7.580209	-5.213516	-0.193813	 3.566525	-1.378229	 35.397820	-2.634230	 0.688290	 1.270533	 0.604447	-0.403452	 2.993318	 0.336557	 96.571270	 87.888080	 170.274100	-50.468460	 75.810480	 63.848720	-2.004845	-12.781650	 23.292500	-26.622920	 1.011746	 9.552007	-7.434412	-4.177203	-37.150220	 5.070815	-0.697434	-9.399699	-2.350882	 35.473990	 5.254307
-6.506133	-26.829580	 0.963275	-29.352460	 9.276144	 3.052880	 5.537571	-20.432500	 175.410100	-4.322604	-36.438740	-1.089366	-1.233680	 83.584820	-0.554432	-2.330843	 36.777680	-0.192392	-1.849861	-22.270660	-178.956200	-1.995136	-40.103110	-0.875359	-1.524567	 86.681520	 0.828977	 2.394234	 25.903330	-0.052910	-1.308949	 5.406090	-1.525178	-2.050318	 4.047210	-2.053161	-2.746955	 1.590830	-0.143665	-101.359700	 88.598210	-167.775800	 54.115230	 68.212710	-63.914330	-4.798029	-4.287362	-17.370230	 8.417469	 1.977609	-5.302608	-2.359548	-11.386870	 6.316341	-5.213516	-0.193813	 3.566525	-1.378229	 35.397820	-2.634230	 0.755690	 1.404414	 0.670094	-0.315570	 3.130254	 0.431175	 96.669530	 87.912870	 170.175800	-51.366590	 75.680660	 64.681200	-2.272321	-12.733200	 23.155560	-26.657320	 1.010907	 9.550480	-7.393639	-4.241411	-36.996960	 5.070815	-0.697434	-9.399699	-2.350882	 35.473990	 5.254307
-6.510376	-26.832420	 0.962646	-29.035630	 8.983006	 2.898964	 5.379671	-20.056610	 175.369700	-4.265144	-36.496510	-1.151298	-1.321656	 83.759960	-0.554367	-2.326935	 37.203370	-0.203051	-1.719260	-20.899200	-178.985700	-1.676068	-38.448810	-0.616131	-1.342868	 86.410460	 0.958654	 2.394476	 25.830670	-0.054441	-1.476573	 5.321732	-1.506304	-2.159821	 4.383079	-2.035581	-2.698497	 1.947906	-0.132735	-100.774500	 88.615770	-168.555500	 53.259690	 68.558450	-62.830580	-4.681743	-4.244857	-16.516640	 8.804638	 1.952264	-5.289663	-3.473269	-11.825850	 3.712836	-5.213516	-0.193813	 3.566525	-1.378229	 35.397820	-2.634230	 0.760239	 1.602107	 0.780381	-0.186045	 3.631986	 0.415224	 96.943420	 87.972520	 169.891600	-52.326180	 75.655930	 65.301260	-2.573027	-12.673890	 22.993100	-26.695050	 1.010070	 9.548866	-7.295069	-4.226025	-36.755860	 5.070815	-0.697434	-9.399699	-2.350882	 35.473990	 5.254307
-6.515053	-26.834930	 0.962489	-28.609820	 8.878194	 2.758635	 5.182107	-19.723560	 175.331500	-4.109322	-36.378250	-1.165515	-1.389731	 83.793000	-0.517805	-2.323739	 37.541550	-0.211585	-1.902592	-19.535670	-179.073500	-1.169718	-36.610280	-0.441880	-1.402987	 86.507160	 1.286453	 2.390630	 26.925610	-0.031351	-1.656572	 5.115008	-1.548637	-2.294551	 4.669153	-2.005991	-2.691631	 2.318984	-0.123695	-99.950460	 88.586530	-169.548400	 52.757270	 68.960210	-62.263060	-4.695927	-4.220113	-15.848700	 9.166086	 1.935856	-5.280570	-3.329042	-11.938010	 4.044733	-5.213516	-0.193813	 3.566525	-1.378229	 35.397820	-2.634230	 0.727564	 1.785116	 0.928291	-0.094556	 4.176469	 0.295385	 97.411480	 88.071970	 169.416200	-52.826320	 75.740910	 65.331920	-2.772770	-12.620860	 22.867890	-26.709680	 1.009624	 9.548439	-7.191488	-4.130126	-36.561820	 5.070815	-0.697434	-9.399699	-2.350882	 35.473990	 5.254307
